<?xml version="1.0" encoding="UTF-8" standalone="no"?>
<!-- Created with Inkscape (http://www.inkscape.org/) -->

<svg
   width="800"
   height="608.047"
   viewBox="0 0 211.66666 160.8791"
   version="1.1"
   id="svg1"
   xml:space="preserve"
   inkscape:version="1.3 (0e150ed6c4, 2023-07-21)"
   sodipodi:docname="spider.svg"
   xmlns:inkscape="http://www.inkscape.org/namespaces/inkscape"
   xmlns:sodipodi="http://sodipodi.sourceforge.net/DTD/sodipodi-0.dtd"
   xmlns:xlink="http://www.w3.org/1999/xlink"
   xmlns="http://www.w3.org/2000/svg"
   xmlns:svg="http://www.w3.org/2000/svg"><sodipodi:namedview
     id="namedview1"
     pagecolor="#ffffff"
     bordercolor="#000000"
     borderopacity="0.25"
     inkscape:showpageshadow="2"
     inkscape:pageopacity="0.0"
     inkscape:pagecheckerboard="0"
     inkscape:deskcolor="#d1d1d1"
     inkscape:document-units="mm"
     inkscape:zoom="0.24453915"
     inkscape:cx="347.59261"
     inkscape:cy="693.14055"
     inkscape:window-width="1304"
     inkscape:window-height="745"
     inkscape:window-x="54"
     inkscape:window-y="-8"
     inkscape:window-maximized="1"
     inkscape:current-layer="layer1" /><defs
     id="defs1"><linearGradient
       id="linearGradient25"
       inkscape:collect="always"><stop
         style="stop-color:#0311fd;stop-opacity:1;"
         offset="0"
         id="stop26" /><stop
         style="stop-color:#5bfd0a;stop-opacity:1;"
         offset="0.35285568"
         id="stop28" /><stop
         style="stop-color:#ffff01;stop-opacity:1;"
         offset="0.66435879"
         id="stop29" /><stop
         style="stop-color:#ff0101;stop-opacity:1;"
         offset="1"
         id="stop27" /></linearGradient><linearGradient
       inkscape:collect="always"
       xlink:href="#linearGradient25"
       id="linearGradient27"
       x1="52.597622"
       y1="129.29201"
       x2="84.725273"
       y2="122.34447"
       gradientUnits="userSpaceOnUse" /><filter
       inkscape:collect="always"
       style="color-interpolation-filters:sRGB"
       id="filter32"
       x="-0.092642462"
       y="-0.12946103"
       width="1.1852849"
       height="1.2589221"><feGaussianBlur
         inkscape:collect="always"
         stdDeviation="1.2430115"
         id="feGaussianBlur32" /></filter><linearGradient
       inkscape:collect="always"
       xlink:href="#linearGradient25"
       id="linearGradient33"
       gradientUnits="userSpaceOnUse"
       x1="52.597622"
       y1="129.29201"
       x2="84.725273"
       y2="122.34447" /></defs><g
     inkscape:label="Слой 1"
     inkscape:groupmode="layer"
     id="layer1"><g
       id="g1"
       transform="matrix(1.0007966,0,0,1.0007966,-28.299592,-51.957525)"><g
         id="g5"
         style="fill:#ffffff;fill-opacity:1"
         transform="matrix(5.5412486,0,0,5.5412486,-246.67661,-572.47833)"><g
           id="g19"><path
             id="text1"
             style="font-size:25.4px;font-family:Consolas;-inkscape-font-specification:Consolas;letter-spacing:0px;fill:url(#linearGradient33);fill-opacity:1;stroke-width:1.4;stroke-linejoin:round"
             d="m 52.602672,115.66442 v 1.73631 h 0.744198 c 1.893423,0 2.840026,0.94675 2.840026,2.84017 v 2.84003 c 0,2.08359 0.880534,3.22054 2.641664,3.41072 -1.744594,0.24804 -2.616811,1.38076 -2.616811,3.39821 v 4.29122 c 0,1.86035 -0.95492,2.79047 -2.864879,2.79047 h -0.744198 v 1.73631 h 0.917706 c 0.868163,0 1.604162,-0.1075 2.207742,-0.32247 0.60358,-0.20671 1.091319,-0.50848 1.463389,-0.90536 0.37207,-0.3886 0.640735,-0.86394 0.806099,-1.42618 0.165365,-0.55397 0.248067,-1.17824 0.248067,-1.87277 v -4.34077 c 0,-0.42995 0.04143,-0.80203 0.12411,-1.11622 0.08268,-0.3142 0.231452,-0.57061 0.446426,-0.76905 0.214974,-0.2067 0.51267,-0.35956 0.893007,-0.45878 0.388607,-0.0992 0.884663,-0.14896 1.488243,-0.14896 h 0.533334 v -1.72381 h -0.533334 c -0.570508,0 -1.045849,-0.0579 -1.426188,-0.17366 -0.380338,-0.11575 -0.68635,-0.28116 -0.91786,-0.49613 -0.223242,-0.22325 -0.380329,-0.49191 -0.471279,-0.8061 -0.09095,-0.32246 -0.136459,-0.68623 -0.136459,-1.09137 v -2.86503 c 0,-1.52135 -0.38856,-2.65407 -1.165772,-3.39821 -0.777213,-0.75242 -1.963759,-1.12857 -3.559525,-1.12857 z m 6.590192,0 v 1.73631 h 0.744044 c 1.893423,0 2.84018,0.94675 2.84018,2.84017 v 2.84003 c 0,2.08359 0.880534,3.22054 2.641665,3.41072 -1.744595,0.24804 -2.616812,1.38076 -2.616812,3.39821 v 4.29122 c 0,1.86035 -0.955074,2.79047 -2.865033,2.79047 h -0.744044 v 1.73631 h 0.917706 c 0.868163,0 1.604008,-0.1075 2.207588,-0.32247 0.60358,-0.20671 1.091473,-0.50848 1.463543,-0.90536 0.37207,-0.3886 0.640735,-0.86394 0.806099,-1.42618 0.165365,-0.55397 0.248067,-1.17824 0.248067,-1.87277 v -4.34077 c 0,-0.42995 0.04143,-0.80203 0.12411,-1.11622 0.08268,-0.3142 0.231452,-0.57061 0.446426,-0.76905 0.214974,-0.2067 0.51267,-0.35956 0.893007,-0.45878 0.388607,-0.0992 0.884663,-0.14896 1.488243,-0.14896 h 0.533334 v -1.72381 h -0.533334 c -0.570508,0 -1.046004,-0.0579 -1.426342,-0.17366 -0.380338,-0.11575 -0.686196,-0.28116 -0.917706,-0.49613 -0.223242,-0.22325 -0.380329,-0.49191 -0.471279,-0.8061 -0.09095,-0.32246 -0.136459,-0.68623 -0.136459,-1.09137 v -2.86503 c 0,-1.52135 -0.38856,-2.65407 -1.165772,-3.39821 -0.777213,-0.75242 -1.963759,-1.12857 -3.559525,-1.12857 z m 18.103424,0 c -1.595767,0 -2.782312,0.37615 -3.559525,1.12857 -0.777213,0.74414 -1.165772,1.87686 -1.165772,3.39821 v 2.86503 c 0,0.40514 -0.04551,0.76891 -0.136459,1.09137 -0.09095,0.31419 -0.248038,0.58285 -0.47128,0.8061 -0.23151,0.21497 -0.537367,0.38038 -0.917705,0.49613 -0.380339,0.11575 -0.855835,0.17366 -1.426342,0.17366 h -0.533334 v 1.72381 h 0.533334 c 0.60358,0 1.099636,0.0497 1.488242,0.14896 0.380339,0.0992 0.678034,0.25208 0.893007,0.45878 0.214974,0.19844 0.363899,0.45485 0.446581,0.76905 0.08268,0.31419 0.123956,0.68627 0.123956,1.11622 v 4.34077 c 0,0.69453 0.0827,1.3188 0.248066,1.87277 0.165365,0.56224 0.43403,1.03758 0.806099,1.42618 0.372071,0.39688 0.859964,0.69865 1.463544,0.90536 0.60358,0.21497 1.339425,0.32247 2.207588,0.32247 h 0.917705 v -1.73631 h -0.744044 c -1.909959,0 -2.865032,-0.93012 -2.865032,-2.79047 v -4.29122 c 0,-2.01745 -0.872218,-3.15017 -2.616812,-3.39821 1.761131,-0.19018 2.641665,-1.32713 2.641665,-3.41072 v -2.84003 c 0,-1.89342 0.946757,-2.84017 2.840179,-2.84017 h 0.744044 v -1.73631 z m 6.590192,0 c -1.595767,0 -2.782313,0.37615 -3.559525,1.12857 -0.777213,0.74414 -1.165772,1.87686 -1.165772,3.39821 v 2.86503 c 0,0.40514 -0.04551,0.76891 -0.136459,1.09137 -0.09095,0.31419 -0.248038,0.58285 -0.47128,0.8061 -0.23151,0.21497 -0.537368,0.38038 -0.917705,0.49613 -0.380339,0.11575 -0.855835,0.17366 -1.426342,0.17366 h -0.533334 v 1.72381 h 0.533334 c 0.60358,0 1.099636,0.0497 1.488242,0.14896 0.380339,0.0992 0.678034,0.25208 0.893007,0.45878 0.214974,0.19844 0.363745,0.45485 0.446427,0.76905 0.08268,0.31419 0.12411,0.68627 0.12411,1.11622 v 4.34077 c 0,0.69453 0.0827,1.3188 0.248066,1.87277 0.165365,0.56224 0.43403,1.03758 0.806099,1.42618 0.37207,0.39688 0.859963,0.69865 1.463544,0.90536 0.60358,0.21497 1.339425,0.32247 2.207588,0.32247 h 0.917706 v -1.73631 h -0.744044 c -1.909959,0 -2.865033,-0.93012 -2.865033,-2.79047 v -4.29122 c 0,-2.01745 -0.872218,-3.15017 -2.616812,-3.39821 1.761131,-0.19018 2.641665,-1.32713 2.641665,-3.41072 v -2.84003 c 0,-1.89342 0.946757,-2.84017 2.84018,-2.84017 h 0.744044 v -1.73631 z" /></g></g><g
         id="g32"
         style="fill:#ffffff;fill-opacity:1;filter:url(#filter32)"
         transform="matrix(5.5412486,0,0,5.5412486,-246.67661,-572.47833)"><g
           id="g31"><path
             id="path31"
             style="font-size:25.4px;font-family:Consolas;-inkscape-font-specification:Consolas;letter-spacing:0px;fill:url(#linearGradient27);fill-opacity:1;stroke-width:1.4;stroke-linejoin:round"
             d="m 52.602672,115.66442 v 1.73631 h 0.744198 c 1.893423,0 2.840026,0.94675 2.840026,2.84017 v 2.84003 c 0,2.08359 0.880534,3.22054 2.641664,3.41072 -1.744594,0.24804 -2.616811,1.38076 -2.616811,3.39821 v 4.29122 c 0,1.86035 -0.95492,2.79047 -2.864879,2.79047 h -0.744198 v 1.73631 h 0.917706 c 0.868163,0 1.604162,-0.1075 2.207742,-0.32247 0.60358,-0.20671 1.091319,-0.50848 1.463389,-0.90536 0.37207,-0.3886 0.640735,-0.86394 0.806099,-1.42618 0.165365,-0.55397 0.248067,-1.17824 0.248067,-1.87277 v -4.34077 c 0,-0.42995 0.04143,-0.80203 0.12411,-1.11622 0.08268,-0.3142 0.231452,-0.57061 0.446426,-0.76905 0.214974,-0.2067 0.51267,-0.35956 0.893007,-0.45878 0.388607,-0.0992 0.884663,-0.14896 1.488243,-0.14896 h 0.533334 v -1.72381 h -0.533334 c -0.570508,0 -1.045849,-0.0579 -1.426188,-0.17366 -0.380338,-0.11575 -0.68635,-0.28116 -0.91786,-0.49613 -0.223242,-0.22325 -0.380329,-0.49191 -0.471279,-0.8061 -0.09095,-0.32246 -0.136459,-0.68623 -0.136459,-1.09137 v -2.86503 c 0,-1.52135 -0.38856,-2.65407 -1.165772,-3.39821 -0.777213,-0.75242 -1.963759,-1.12857 -3.559525,-1.12857 z m 6.590192,0 v 1.73631 h 0.744044 c 1.893423,0 2.84018,0.94675 2.84018,2.84017 v 2.84003 c 0,2.08359 0.880534,3.22054 2.641665,3.41072 -1.744595,0.24804 -2.616812,1.38076 -2.616812,3.39821 v 4.29122 c 0,1.86035 -0.955074,2.79047 -2.865033,2.79047 h -0.744044 v 1.73631 h 0.917706 c 0.868163,0 1.604008,-0.1075 2.207588,-0.32247 0.60358,-0.20671 1.091473,-0.50848 1.463543,-0.90536 0.37207,-0.3886 0.640735,-0.86394 0.806099,-1.42618 0.165365,-0.55397 0.248067,-1.17824 0.248067,-1.87277 v -4.34077 c 0,-0.42995 0.04143,-0.80203 0.12411,-1.11622 0.08268,-0.3142 0.231452,-0.57061 0.446426,-0.76905 0.214974,-0.2067 0.51267,-0.35956 0.893007,-0.45878 0.388607,-0.0992 0.884663,-0.14896 1.488243,-0.14896 h 0.533334 v -1.72381 h -0.533334 c -0.570508,0 -1.046004,-0.0579 -1.426342,-0.17366 -0.380338,-0.11575 -0.686196,-0.28116 -0.917706,-0.49613 -0.223242,-0.22325 -0.380329,-0.49191 -0.471279,-0.8061 -0.09095,-0.32246 -0.136459,-0.68623 -0.136459,-1.09137 v -2.86503 c 0,-1.52135 -0.38856,-2.65407 -1.165772,-3.39821 -0.777213,-0.75242 -1.963759,-1.12857 -3.559525,-1.12857 z m 18.103424,0 c -1.595767,0 -2.782312,0.37615 -3.559525,1.12857 -0.777213,0.74414 -1.165772,1.87686 -1.165772,3.39821 v 2.86503 c 0,0.40514 -0.04551,0.76891 -0.136459,1.09137 -0.09095,0.31419 -0.248038,0.58285 -0.47128,0.8061 -0.23151,0.21497 -0.537367,0.38038 -0.917705,0.49613 -0.380339,0.11575 -0.855835,0.17366 -1.426342,0.17366 h -0.533334 v 1.72381 h 0.533334 c 0.60358,0 1.099636,0.0497 1.488242,0.14896 0.380339,0.0992 0.678034,0.25208 0.893007,0.45878 0.214974,0.19844 0.363899,0.45485 0.446581,0.76905 0.08268,0.31419 0.123956,0.68627 0.123956,1.11622 v 4.34077 c 0,0.69453 0.0827,1.3188 0.248066,1.87277 0.165365,0.56224 0.43403,1.03758 0.806099,1.42618 0.372071,0.39688 0.859964,0.69865 1.463544,0.90536 0.60358,0.21497 1.339425,0.32247 2.207588,0.32247 h 0.917705 v -1.73631 h -0.744044 c -1.909959,0 -2.865032,-0.93012 -2.865032,-2.79047 v -4.29122 c 0,-2.01745 -0.872218,-3.15017 -2.616812,-3.39821 1.761131,-0.19018 2.641665,-1.32713 2.641665,-3.41072 v -2.84003 c 0,-1.89342 0.946757,-2.84017 2.840179,-2.84017 h 0.744044 v -1.73631 z m 6.590192,0 c -1.595767,0 -2.782313,0.37615 -3.559525,1.12857 -0.777213,0.74414 -1.165772,1.87686 -1.165772,3.39821 v 2.86503 c 0,0.40514 -0.04551,0.76891 -0.136459,1.09137 -0.09095,0.31419 -0.248038,0.58285 -0.47128,0.8061 -0.23151,0.21497 -0.537368,0.38038 -0.917705,0.49613 -0.380339,0.11575 -0.855835,0.17366 -1.426342,0.17366 h -0.533334 v 1.72381 h 0.533334 c 0.60358,0 1.099636,0.0497 1.488242,0.14896 0.380339,0.0992 0.678034,0.25208 0.893007,0.45878 0.214974,0.19844 0.363745,0.45485 0.446427,0.76905 0.08268,0.31419 0.12411,0.68627 0.12411,1.11622 v 4.34077 c 0,0.69453 0.0827,1.3188 0.248066,1.87277 0.165365,0.56224 0.43403,1.03758 0.806099,1.42618 0.37207,0.39688 0.859963,0.69865 1.463544,0.90536 0.60358,0.21497 1.339425,0.32247 2.207588,0.32247 h 0.917706 v -1.73631 h -0.744044 c -1.909959,0 -2.865033,-0.93012 -2.865033,-2.79047 v -4.29122 c 0,-2.01745 -0.872218,-3.15017 -2.616812,-3.39821 1.761131,-0.19018 2.641665,-1.32713 2.641665,-3.41072 v -2.84003 c 0,-1.89342 0.946757,-2.84017 2.84018,-2.84017 h 0.744044 v -1.73631 z" /></g></g></g></g></svg>
